<?xml version="1.0" encoding="UTF-8" standalone="no"?>
<!-- Created with Inkscape (http://www.inkscape.org/) -->

<svg
   width="210mm"
   height="297mm"
   viewBox="0 0 210 297"
   version="1.1"
   id="svg5"
   sodipodi:docname="onlineShopLogo.png.svg"
   inkscape:version="1.1.2 (0a00cf5339, 2022-02-04)"
   inkscape:export-filename="/home/jash/Documents/onlineshop/assets/images/onlineShopLogo.png.png"
   inkscape:export-xdpi="96"
   inkscape:export-ydpi="96"
   xmlns:inkscape="http://www.inkscape.org/namespaces/inkscape"
   xmlns:sodipodi="http://sodipodi.sourceforge.net/DTD/sodipodi-0.dtd"
   xmlns="http://www.w3.org/2000/svg"
   xmlns:svg="http://www.w3.org/2000/svg">
  <sodipodi:namedview
     id="namedview7"
     pagecolor="#ffffff"
     bordercolor="#666666"
     borderopacity="1.0"
     inkscape:pageshadow="2"
     inkscape:pageopacity="0.0"
     inkscape:pagecheckerboard="0"
     inkscape:document-units="mm"
     showgrid="false"
     inkscape:object-paths="true"
     inkscape:object-nodes="true"
     inkscape:zoom="0.4187009"
     inkscape:cx="335.56173"
     inkscape:cy="560.06567"
     inkscape:window-width="1316"
     inkscape:window-height="704"
     inkscape:window-x="0"
     inkscape:window-y="0"
     inkscape:window-maximized="1"
     inkscape:current-layer="layer1" />
  <defs
     id="defs2" />
  <g
     inkscape:label="Layer 1"
     inkscape:groupmode="layer"
     id="layer1">
    <path
       style="opacity:0.36585263;fill:#0000ff;fill-opacity:0.75381005"
       id="path74989"
       sodipodi:type="arc"
       sodipodi:cx="-81.973053"
       sodipodi:cy="-128.50273"
       sodipodi:rx="56.969002"
       sodipodi:ry="59.619072"
       sodipodi:start="0"
       sodipodi:end="6.2822603"
       sodipodi:open="true"
       sodipodi:arc-type="arc"
       d="m -25.004051,-128.50273 a 56.969002,59.619072 0 0 1 -56.955828,59.619069 56.969002,59.619072 0 0 1 -56.982171,-59.591499 56.969002,59.619072 0 0 1 56.929474,-59.64663 56.969002,59.619072 0 0 1 57.0085,59.56391"
       transform="scale(-1)" />
    <rect
       style="opacity:1;fill:#000000;fill-opacity:1;stroke-width:0.301901"
       id="rect5477"
       width="82.970093"
       height="45.771866"
       x="39.246193"
       y="91.38205"
       rx="5.6151199"
       ry="7.0225582" />
    <rect
       style="opacity:1;fill:#ffffff;fill-opacity:1;stroke-width:0.264582"
       id="rect5819"
       width="76.088486"
       height="38.335468"
       x="42.509098"
       y="95.197273"
       rx="5.1493974"
       ry="5.8816271" />
    <path
       id="rect5897"
       style="opacity:1;stroke-width:0.282387"
       d="m 72.278144,137.15392 16.104802,0.0723 c 4.56195,0.0205 4.10449,0.94767 4.19014,1.15885 l 3.93566,9.70311 c 0.0856,0.21118 -3.67658,0.37846 -8.23853,0.35799 l -16.104807,-0.0723 c -4.561946,-0.0205 -8.321234,-0.22165 -8.230591,-0.4319 l 4.025219,-9.33655 c 0.356015,-0.82578 1.475952,-1.46425 4.318107,-1.45149 z"
       sodipodi:nodetypes="sssssssss" />
    <rect
       style="opacity:1;fill:#000000;fill-opacity:1;stroke-width:0.264583"
       id="rect9241"
       width="0.41897324"
       height="0.0028136007"
       x="82.586304"
       y="139.22458"
       rx="5.6151195"
       ry="0.0028136007" />
    <rect
       style="opacity:1;fill:#000000;fill-opacity:1;stroke-width:0.264583"
       id="rect9246"
       width="0.41897583"
       height="0.002807617"
       x="82.586304"
       y="139.22458"
       rx="5.6151195"
       ry="0.002807617" />
    <rect
       style="opacity:1;fill:#000000;fill-opacity:1;stroke-width:0.264583"
       id="rect9248"
       width="62.807648"
       height="3.8655419"
       x="48.630295"
       y="149.96872"
       rx="1.932771"
       ry="1.932771" />
    <rect
       style="opacity:1;fill:#000000;fill-opacity:1;stroke-width:0.264583"
       id="rect9250"
       width="0.41897583"
       height="0.002807617"
       x="82.586304"
       y="139.22458"
       rx="1.9327706"
       ry="0.002807617" />
    <rect
       style="opacity:1;fill:#000000;fill-opacity:1;stroke-width:0.264583"
       id="rect9252"
       width="1.8847496e-06"
       height="9.4237475e-06"
       x="83.00528"
       y="139.22739"
       rx="1.9327706"
       ry="9.4237475e-06" />
    <rect
       style="opacity:1;fill:#000000;fill-opacity:1;stroke-width:0.208852"
       id="rect10002"
       width="27.472422"
       height="42.673782"
       x="68.891838"
       y="76.796852"
       rx="13.377254"
       ry="10.981806" />
    <rect
       style="opacity:1;fill:#000000;fill-opacity:1;stroke-width:0.168603"
       id="rect10174"
       width="21.582188"
       height="35.40049"
       x="72.223068"
       y="77.406563"
       rx="10.509099"
       ry="9.110074" />
    <rect
       style="opacity:1;fill:#ffffff;fill-opacity:1;stroke-width:0.163081"
       id="rect10178"
       width="21.582184"
       height="33.120152"
       x="72.223068"
       y="79.686905"
       rx="10.509097"
       ry="8.5232458" />
    <rect
       style="opacity:1;fill:#ffffff;fill-opacity:1;stroke-width:0.256659"
       id="rect10520"
       width="41.449856"
       height="18.294497"
       x="61.791706"
       y="101.65835"
       rx="9.6173954"
       ry="11.18673" />
    <rect
       style="opacity:1;fill:#ffffff;fill-opacity:1;stroke-width:0.28848"
       id="rect11063"
       width="2.4524734"
       height="15.14171"
       x="66.525948"
       y="86.51664"
       rx="1.2262367"
       inkscape:transform-center-x="6.4771277" />
    <rect
       style="opacity:1;fill:#000000;fill-opacity:1;stroke-width:0.264583"
       id="rect11250"
       width="18.593721"
       height="3.8152237"
       x="73.85099"
       y="91.38205"
       rx="3.0954397"
       ry="0" />
    <rect
       style="opacity:1;fill:#ffffff;fill-opacity:1;stroke-width:0.341241"
       id="rect11356"
       width="3.4315722"
       height="15.14171"
       x="96.277679"
       y="86.51664"
       rx="1.7157861"
       inkscape:transform-center-x="9.0629862" />
    <rect
       style="opacity:1;fill:#ffffff;fill-opacity:1;stroke-width:0.122386"
       id="rect11427"
       width="43.113716"
       height="3.1597288"
       x="60.127846"
       y="98.498619"
       rx="4.7684364"
       ry="1.3589852" />
    <path
       style="opacity:1;fill:#000000;fill-opacity:1"
       id="path11552"
       sodipodi:type="arc"
       sodipodi:cx="95.387054"
       sodipodi:cy="101.66134"
       sodipodi:rx="4.3221936"
       sodipodi:ry="3.2305374"
       sodipodi:start="0"
       sodipodi:end="6.2822603"
       sodipodi:open="true"
       sodipodi:arc-type="arc"
       d="m 99.709248,101.66134 a 4.3221936,3.2305374 0 0 1 -4.321194,3.23054 4.3221936,3.2305374 0 0 1 -4.323193,-3.22905 4.3221936,3.2305374 0 0 1 4.319195,-3.232028 4.3221936,3.2305374 0 0 1 4.32519,3.227548" />
    <path
       style="opacity:1;fill:#000000;fill-opacity:1"
       id="path11576"
       sodipodi:type="arc"
       sodipodi:cx="70.672325"
       sodipodi:cy="101.66134"
       sodipodi:rx="4.663312"
       sodipodi:ry="3.2305374"
       sodipodi:start="0"
       sodipodi:end="6.2822603"
       sodipodi:open="true"
       sodipodi:arc-type="arc"
       d="m 75.335637,101.66134 a 4.663312,3.2305374 0 0 1 -4.662233,3.23054 4.663312,3.2305374 0 0 1 -4.66439,-3.22905 4.663312,3.2305374 0 0 1 4.660076,-3.232028 4.663312,3.2305374 0 0 1 4.666545,3.227548" />
    <text
       xml:space="preserve"
       style="font-style:normal;font-variant:normal;font-weight:normal;font-stretch:normal;font-size:22.9621px;line-height:1.25;font-family:'padmaa-Bold.1.1';-inkscape-font-specification:'padmaa-Bold.1.1';fill:#000000;fill-opacity:1;stroke:none;stroke-width:0.574051"
       x="23.355955"
       y="176.3945"
       id="text25937"
       transform="scale(1.0031879,0.99682218)"><tspan
         sodipodi:role="line"
         id="tspan25935"
         style="font-style:normal;font-variant:normal;font-weight:normal;font-stretch:normal;font-family:'padmaa-Bold.1.1';-inkscape-font-specification:'padmaa-Bold.1.1';stroke-width:0.574051"
         x="23.355955"
         y="176.3945"><tspan
   style="fill:#0000ff;stroke-width:0.574051"
   id="tspan55599">Online</tspan>Shop</tspan></text>
  </g>
</svg>
